<?xml version="1.0" encoding="UTF-8" standalone="no"?>
<!-- Created with Inkscape (http://www.inkscape.org/) -->

<svg
   width="16.66663mm"
   height="11.467997mm"
   viewBox="0 0 16.66663 11.467997"
   version="1.1"
   id="svg5"
   inkscape:version="1.1.2 (0a00cf5339, 2022-02-04)"
   sodipodi:docname="logo.svg"
   xmlns:inkscape="http://www.inkscape.org/namespaces/inkscape"
   xmlns:sodipodi="http://sodipodi.sourceforge.net/DTD/sodipodi-0.dtd"
   xmlns="http://www.w3.org/2000/svg"
   xmlns:svg="http://www.w3.org/2000/svg">
  <sodipodi:namedview
     id="namedview7"
     pagecolor="#ffffff"
     bordercolor="#666666"
     borderopacity="1.0"
     inkscape:pageshadow="2"
     inkscape:pageopacity="0.0"
     inkscape:pagecheckerboard="0"
     inkscape:document-units="mm"
     showgrid="false"
     inkscape:zoom="8"
     inkscape:cx="42.4375"
     inkscape:cy="15.875"
     inkscape:window-width="1866"
     inkscape:window-height="1026"
     inkscape:window-x="25"
     inkscape:window-y="25"
     inkscape:window-maximized="1"
     inkscape:current-layer="layer1" />
  <defs
     id="defs2" />
  <g
     inkscape:label="Layer 1"
     inkscape:groupmode="layer"
     id="layer1"
     transform="translate(-86.054833,-78.247025)">
    <text
       xml:space="preserve"
       style="font-size:10.5833px;line-height:125%;font-family:'Baekmuk Headline';-inkscape-font-specification:'Baekmuk Headline';letter-spacing:0px;word-spacing:0px;fill:none;stroke:#000000;stroke-width:0.264583px;stroke-linecap:butt;stroke-linejoin:miter;stroke-opacity:1"
       x="80.34819"
       y="-3.3424191"
       id="text4127"><tspan
         sodipodi:role="line"
         id="tspan4125"
         style="stroke-width:0.264583px"
         x="80.34819"
         y="-3.3424191" /></text>
    <g
       id="g66946">
      <path
         d="m 93.065235,82.714954 v -0.73897 q 0,-0.1757 0.124023,-0.299723 0.124023,-0.124023 0.299723,-0.124023 h 1.798334 q 0.175699,0 0.299722,0.124023 0.124023,0.124023 0.124023,0.299723 v 5.555199 q 0,0.175699 -0.124023,0.299722 -0.124023,0.124023 -0.299722,0.124023 -0.175699,0 -0.299722,-0.124023 -0.118856,-0.124023 -0.118856,-0.299722 v -4.180611 q 0,-0.08785 -0.06201,-0.149861 -0.06201,-0.06201 -0.149862,-0.06201 h -1.167883 q -0.1757,0 -0.299723,-0.124023 -0.124023,-0.124023 -0.124023,-0.299723 z"
         id="path11733"
         style="font-size:10.5833px;font-family:'Gladia CLM';-inkscape-font-specification:'Gladia CLM';letter-spacing:0px;word-spacing:0px;fill:#ff0000;fill-opacity:1;stroke:#000000;stroke-width:0.264583px;stroke-opacity:1" />
      <path
         d="m 93.66877,84.507192 h 0.775144 v 0.775144 H 93.66877 Z"
         id="path11735"
         style="font-size:10.5833px;font-family:'Gladia CLM';-inkscape-font-specification:'Gladia CLM';letter-spacing:0px;word-spacing:0px;fill:#c2c200;fill-opacity:1;stroke:#000000;stroke-width:0.165;stroke-miterlimit:4;stroke-dasharray:none;stroke-opacity:1" />
      <path
         d="m 86.187124,87.531183 v -5.555199 q 0,-0.1757 0.124023,-0.299723 0.124023,-0.124023 0.299723,-0.124023 h 4.976424 q 0.175699,0 0.299722,0.124023 0.124024,0.124023 0.124024,0.299723 v 5.555199 q 0,0.175699 -0.124024,0.299722 -0.124023,0.124023 -0.299722,0.124023 -0.175699,0 -0.299722,-0.124023 -0.124023,-0.124023 -0.124023,-0.299722 v -4.180611 q 0,-0.08785 -0.06201,-0.149861 -0.06201,-0.06201 -0.149861,-0.06201 H 87.24649 q -0.08785,0 -0.149862,0.06201 -0.06201,0.06201 -0.06201,0.149861 v 4.180611 q 0,0.175699 -0.124023,0.299722 -0.124023,0.124023 -0.299722,0.124023 -0.1757,0 -0.299723,-0.124023 -0.124023,-0.124023 -0.124023,-0.299722 z"
         id="path11737"
         style="font-size:10.5833px;font-family:'Gladia CLM';-inkscape-font-specification:'Gladia CLM';letter-spacing:0px;word-spacing:0px;fill:#ff0000;fill-opacity:1;stroke:#000000;stroke-width:0.264583px;stroke-opacity:1" />
      <path
         d="m 88.023701,88.323328 h 2.042242 l 0.529167,1.259402 h -3.100576 z"
         id="path11739"
         sodipodi:nodetypes="ccccc"
         style="font-size:10.5833px;font-family:'Gladia CLM';-inkscape-font-specification:'Gladia CLM';letter-spacing:0px;word-spacing:0px;fill:#c2c200;fill-opacity:1;stroke:#000000;stroke-width:0.264583px;stroke-opacity:1" />
      <ellipse
         style="font-size:10.5833px;font-family:'Gladia CLM';-inkscape-font-specification:'Gladia CLM';letter-spacing:0px;word-spacing:0px;fill:#000000;fill-opacity:1;fill-rule:evenodd;stroke:#c2c200;stroke-width:0.439596px;stroke-linecap:butt;stroke-linejoin:miter;stroke-opacity:1"
         id="ellipse32155"
         cx="100.21376"
         cy="87.132576"
         rx="0.43438619"
         ry="0.43464306" />
      <ellipse
         style="font-size:10.5833px;font-family:'Gladia CLM';-inkscape-font-specification:'Gladia CLM';letter-spacing:0px;word-spacing:0px;fill:#000000;fill-opacity:1;fill-rule:evenodd;stroke:#c2c200;stroke-width:0.195589px;stroke-linecap:butt;stroke-linejoin:miter;stroke-opacity:1"
         id="ellipse32159"
         cx="95.289719"
         cy="87.538338"
         rx="0.19327083"
         ry="0.19338512" />
      <ellipse
         style="font-size:10.5833px;font-family:'Gladia CLM';-inkscape-font-specification:'Gladia CLM';letter-spacing:0px;word-spacing:0px;fill:#000000;fill-opacity:1;fill-rule:evenodd;stroke:#c2c200;stroke-width:0.195589px;stroke-linecap:butt;stroke-linejoin:miter;stroke-opacity:1"
         id="ellipse32161"
         cx="91.586533"
         cy="87.532951"
         rx="0.19327083"
         ry="0.19338512" />
      <ellipse
         style="font-size:10.5833px;font-family:'Gladia CLM';-inkscape-font-specification:'Gladia CLM';letter-spacing:0px;word-spacing:0px;fill:#000000;fill-opacity:1;fill-rule:evenodd;stroke:#c2c200;stroke-width:0.195589px;stroke-linecap:butt;stroke-linejoin:miter;stroke-opacity:1"
         id="ellipse32163"
         cx="86.609634"
         cy="87.530777"
         rx="0.19327083"
         ry="0.19338512" />
      <path
         d="m 96.765257,82.714954 v -3.911893 c 0,-0.117133 0.04134,-0.21704 0.124023,-0.299722 0.08268,-0.08268 0.18259,-0.124023 0.299723,-0.124023 h 0.84749 c 0.117133,0 0.217041,0.04134 0.299723,0.124023 0.08268,0.08268 0.124023,0.182589 0.124023,0.299722 v 0.738971 c 0,0.117133 -0.04134,0.21704 -0.124023,0.299722 -0.08268,0.08268 -0.18259,0.124023 -0.299723,0.124023 h -0.211872 c -0.05857,0 -0.108521,0.02067 -0.149862,0.06201 -0.04134,0.04134 -0.06201,0.09129 -0.06201,0.149862 v 1.162716 c 0,0.05857 0.02067,0.10852 0.06201,0.149861 0.04134,0.04134 0.09129,0.06201 0.149862,0.06201 h 4.340809 c 0.11713,0 0.21704,0.04134 0.29972,0.124023 0.0827,0.08268 0.12402,0.18259 0.12402,0.299723 v 5.503522 c 0,0.117133 -0.0413,0.217041 -0.12402,0.299723 -0.0827,0.08268 -0.18259,0.124023 -0.29972,0.124023 h -2.330603 c -0.117133,0 -0.21704,-0.04134 -0.299722,-0.124023 -0.08268,-0.08268 -0.124023,-0.18259 -0.124023,-0.299723 v -0.73897 c 0,-0.117133 0.04134,-0.217041 0.124023,-0.299723 0.08268,-0.08268 0.182589,-0.124023 0.299722,-0.124023 h 1.694983 c 0.0586,0 0.10855,-0.02067 0.14986,-0.06201 0.0413,-0.04134 0.062,-0.09129 0.062,-0.149861 v -2.754346 c 0,-0.05857 -0.0207,-0.10852 -0.062,-0.149861 -0.0413,-0.04134 -0.0913,-0.06201 -0.14986,-0.06201 h -4.340807 c -0.117133,0 -0.217041,-0.04134 -0.299723,-0.124023 -0.08268,-0.08268 -0.124023,-0.18259 -0.124023,-0.299723 z"
         id="path11731"
         style="font-size:10.5833px;font-family:'Gladia CLM';-inkscape-font-specification:'Gladia CLM';letter-spacing:0px;word-spacing:0px;fill:#ff0000;stroke:#000000;stroke-width:0.264583px;stroke-opacity:1"
         sodipodi:nodetypes="sssssssssssssssssssssssssssssssssssss"
         inkscape:label="path11731" />
      <rect
         style="fill:#c2c200;fill-opacity:1;fill-rule:evenodd;stroke:#c2c200;stroke-width:0.248805;stroke-opacity:1"
         id="rect45974"
         width="1.182613"
         height="1.0723317"
         x="97.021889"
         y="78.636993"
         ry="0.16918328"
         rx="0.15476441" />
      <rect
         style="fill:#c2c200;fill-opacity:1;fill-rule:evenodd;stroke:#c2c200;stroke-width:0.248805;stroke-opacity:1"
         id="rect47002"
         width="1.182613"
         height="1.0723317"
         x="99.667"
         y="86.574196"
         ry="0.16918328"
         rx="0.15476441" />
      <rect
         style="fill:#c2c200;fill-opacity:1;fill-rule:evenodd;stroke:#c2c200;stroke-width:0.248805;stroke-opacity:1"
         id="rect47084"
         width="1.182613"
         height="1.0723317"
         x="93.321831"
         y="81.810074"
         ry="0.16918328"
         rx="0.15476441" />
    </g>
  </g>
</svg>
