<?xml version="1.0" encoding="UTF-8" standalone="no"?>
<!-- Created with Inkscape (http://www.inkscape.org/) -->

<svg
   width="50mm"
   height="34.404068mm"
   viewBox="0 0 50.000001 34.404069"
   version="1.1"
   id="svg5"
   inkscape:version="1.1.2 (0a00cf5339, 2022-02-04)"
   sodipodi:docname="logo.svg"
   xmlns:inkscape="http://www.inkscape.org/namespaces/inkscape"
   xmlns:sodipodi="http://sodipodi.sourceforge.net/DTD/sodipodi-0.dtd"
   xmlns="http://www.w3.org/2000/svg"
   xmlns:svg="http://www.w3.org/2000/svg">
  <sodipodi:namedview
     id="namedview7"
     pagecolor="#ffffff"
     bordercolor="#666666"
     borderopacity="1.0"
     inkscape:pageshadow="2"
     inkscape:pageopacity="0.0"
     inkscape:pagecheckerboard="0"
     inkscape:document-units="mm"
     showgrid="false"
     inkscape:zoom="4"
     inkscape:cx="112.375"
     inkscape:cy="47"
     inkscape:window-width="1866"
     inkscape:window-height="1146"
     inkscape:window-x="1945"
     inkscape:window-y="25"
     inkscape:window-maximized="1"
     inkscape:current-layer="g66946"
     inkscape:snap-text-baseline="true"
     inkscape:snap-page="true"
     inkscape:snap-bbox="true"
     inkscape:bbox-paths="true"
     inkscape:bbox-nodes="true"
     inkscape:snap-bbox-edge-midpoints="true"
     inkscape:snap-bbox-midpoints="true" />
  <defs
     id="defs2" />
  <g
     inkscape:label="Layer 1"
     inkscape:groupmode="layer"
     id="layer1"
     transform="translate(-86.054833,-78.247026)">
    <g
       id="g66946"
       transform="matrix(3.0000068,0,0,3.0000068,-172.11025,-156.49458)">
      <g
         id="g1084"
         inkscape:label="vav">
        <ellipse
           style="font-size:10.5833px;font-family:'Gladia CLM';-inkscape-font-specification:'Gladia CLM';letter-spacing:0px;word-spacing:0px;fill:#000000;fill-opacity:1;fill-rule:evenodd;stroke:#c2c200;stroke-width:0.195589px;stroke-linecap:butt;stroke-linejoin:miter;stroke-opacity:1"
           id="ellipse32159"
           cx="95.289719"
           cy="87.538338"
           rx="0.19327083"
           ry="0.19338512" />
        <path
           d="m 93.065235,82.714954 v -0.73897 q 0,-0.1757 0.124023,-0.299723 0.124023,-0.124023 0.299723,-0.124023 h 1.798334 q 0.175699,0 0.299722,0.124023 0.124023,0.124023 0.124023,0.299723 v 5.555199 q 0,0.175699 -0.124023,0.299722 -0.124023,0.124023 -0.299722,0.124023 -0.175699,0 -0.299722,-0.124023 -0.118856,-0.124023 -0.118856,-0.299722 v -4.180611 q 0,-0.08785 -0.06201,-0.149861 -0.06201,-0.06201 -0.149862,-0.06201 h -1.167883 q -0.1757,0 -0.299723,-0.124023 -0.124023,-0.124023 -0.124023,-0.299723 z"
           id="path11733"
           style="font-size:10.5833px;font-family:'Gladia CLM';-inkscape-font-specification:'Gladia CLM';letter-spacing:0px;word-spacing:0px;fill:#ff0000;fill-opacity:1;stroke:#000000;stroke-width:0.264583px;stroke-opacity:1" />
        <path
           d="m 93.66877,84.507192 h 0.775144 v 0.775144 H 93.66877 Z"
           id="path11735"
           style="font-size:10.5833px;font-family:'Gladia CLM';-inkscape-font-specification:'Gladia CLM';letter-spacing:0px;word-spacing:0px;fill:#c2c200;fill-opacity:1;stroke:#000000;stroke-width:0.165;stroke-miterlimit:4;stroke-dasharray:none;stroke-opacity:1" />
        <rect
           style="fill:#c2c200;fill-opacity:1;fill-rule:evenodd;stroke:#c2c200;stroke-width:0.248805;stroke-opacity:1"
           id="rect47084"
           width="1.182613"
           height="1.0723317"
           x="93.321831"
           y="81.810074"
           ry="0.16918328"
           rx="0.15476441"
           inkscape:label="pad" />
      </g>
      <g
         id="g1172"
         inkscape:label="het">
        <path
           d="m 86.187124,87.531183 v -5.555199 q 0,-0.1757 0.124023,-0.299723 0.124023,-0.124023 0.299723,-0.124023 h 4.976424 q 0.175699,0 0.299722,0.124023 0.124024,0.124023 0.124024,0.299723 v 5.555199 q 0,0.175699 -0.124024,0.299722 -0.124023,0.124023 -0.299722,0.124023 -0.175699,0 -0.299722,-0.124023 -0.124023,-0.124023 -0.124023,-0.299722 v -4.180611 q 0,-0.08785 -0.06201,-0.149861 -0.06201,-0.06201 -0.149861,-0.06201 H 87.24649 q -0.08785,0 -0.149862,0.06201 -0.06201,0.06201 -0.06201,0.149861 v 4.180611 q 0,0.175699 -0.124023,0.299722 -0.124023,0.124023 -0.299722,0.124023 -0.1757,0 -0.299723,-0.124023 -0.124023,-0.124023 -0.124023,-0.299722 z"
           id="path11737"
           style="font-size:10.5833px;font-family:'Gladia CLM';-inkscape-font-specification:'Gladia CLM';letter-spacing:0px;word-spacing:0px;fill:#ff0000;fill-opacity:1;stroke:#000000;stroke-width:0.264583px;stroke-opacity:1"
           inkscape:label="corpus" />
        <path
           d="m 88.023701,88.323328 h 2.042242 l 0.529167,1.259402 h -3.100576 z"
           id="path11739"
           sodipodi:nodetypes="ccccc"
           style="font-size:10.5833px;font-family:'Gladia CLM';-inkscape-font-specification:'Gladia CLM';letter-spacing:0px;word-spacing:0px;fill:#c2c200;fill-opacity:1;stroke:#000000;stroke-width:0.264583px;stroke-opacity:1"
           inkscape:label="vowel" />
        <ellipse
           style="font-size:10.5833px;font-family:'Gladia CLM';-inkscape-font-specification:'Gladia CLM';letter-spacing:0px;word-spacing:0px;fill:#000000;fill-opacity:1;fill-rule:evenodd;stroke:#c2c200;stroke-width:0.195589px;stroke-linecap:butt;stroke-linejoin:miter;stroke-opacity:1"
           id="ellipse32161"
           cx="91.586533"
           cy="87.532951"
           rx="0.19327083"
           ry="0.19338512" />
        <ellipse
           style="font-size:10.5833px;font-family:'Gladia CLM';-inkscape-font-specification:'Gladia CLM';letter-spacing:0px;word-spacing:0px;fill:#000000;fill-opacity:1;fill-rule:evenodd;stroke:#c2c200;stroke-width:0.195589px;stroke-linecap:butt;stroke-linejoin:miter;stroke-opacity:1"
           id="ellipse32163"
           cx="86.609634"
           cy="87.530777"
           rx="0.19327083"
           ry="0.19338512" />
      </g>
      <g
         id="g1078"
         inkscape:label="lamed">
        <path
           id="path11731"
           style="font-size:10.5833px;font-family:'Gladia CLM';-inkscape-font-specification:'Gladia CLM';letter-spacing:0px;word-spacing:0px;fill:#ff0000;stroke:#000000;stroke-width:3px;stroke-opacity:1"
           inkscape:label="corpus"
           d="m 126.24609,1.5 c -1.32812,0 -2.46096,0.4687739 -3.39843,1.40625 -0.93751,0.9374988 -1.40625,2.0703123 -1.40625,3.3984375 V 50.660156 c 0,1.328125 0.46877,2.460962 1.40625,3.398438 0.9375,0.93751 2.07031,1.40625 3.39843,1.40625 h 49.21875 c 0.66399,0 1.23094,0.234387 1.69922,0.703125 0.46829,0.468749 0.70313,1.035116 0.70313,1.699219 v 31.230468 c 0,0.664114 -0.23484,1.230481 -0.70313,1.699219 C 176.69566,91.265613 176.12929,91.5 175.46484,91.5 h -18.89648 a 8.9907065,8.9960229 0 0 0 -0.19531,-0.0039 8.9907065,8.9960229 0 0 0 -8.99219,8.9961 8.9907065,8.9960229 0 0 0 8.33594,8.9707 c 0.0869,0.009 0.17491,0.0133 0.26367,0.0176 0.0879,0.004 0.17591,0.008 0.26562,0.008 h 0.12696 26.29883 c 1.32809,0 2.46073,-0.46877 3.39843,-1.40625 0.93793,-0.9375 1.40625,-2.07031 1.40625,-3.39844 V 42.28125 c 0,-1.328125 -0.46854,-2.460961 -1.40625,-3.398438 -0.93747,-0.93751 -2.07034,-1.40625 -3.39843,-1.40625 h -49.21876 c -0.66412,0 -1.23048,-0.234386 -1.69921,-0.703124 -0.46874,-0.46875 -0.70313,-1.035117 -0.70313,-1.699219 V 21.890625 c 0,-0.664125 0.23439,-1.230481 0.70313,-1.699219 0.46875,-0.468738 1.03511,-0.703125 1.69921,-0.703125 h 2.40235 c 1.32812,0 2.46096,-0.468774 3.39844,-1.40625 0.93751,-0.937499 1.40625,-2.070312 1.40625,-3.398437 V 6.3046875 c 0,-1.3281252 -0.46878,-2.4609614 -1.40625,-3.3984375 C 138.31641,1.9687398 137.18359,1.5 135.85547,1.5 Z"
           transform="matrix(0.08819424,0,0,0.08819424,86.054833,78.247025)" />
        <rect
           style="fill:#c2c200;fill-opacity:1;fill-rule:evenodd;stroke:#c2c200;stroke-width:0.248805;stroke-opacity:1"
           id="rect45974"
           width="1.182613"
           height="1.0723317"
           x="97.021889"
           y="78.636993"
           ry="0.16918328"
           rx="0.15476441"
           inkscape:label="pad" />
        <ellipse
           style="font-size:10.5833px;font-family:'Gladia CLM';-inkscape-font-specification:'Gladia CLM';letter-spacing:0px;word-spacing:0px;fill:#000000;fill-opacity:1;fill-rule:evenodd;stroke:#c2c200;stroke-width:0.443365px;stroke-linecap:butt;stroke-linejoin:miter;stroke-opacity:1"
           id="ellipse1427"
           cx="99.839928"
           cy="87.110123"
           rx="0.43811047"
           ry="0.43836951" />
      </g>
    </g>
  </g>
</svg>
